<?xml version="1.0" standalone="no"?><svg xmlns="http://www.w3.org/2000/svg" viewBox="0 0 1440 320"><path fill="#000b76" fill-opacity="1" d="M0,160L24,144C48,128,96,96,144,112C192,128,240,192,288,234.7C336,277,384,299,432,261.3C480,224,528,128,576,101.3C624,75,672,117,720,138.7C768,160,816,160,864,186.7C912,213,960,267,1008,272C1056,277,1104,235,1152,229.3C1200,224,1248,256,1296,261.3C1344,267,1392,245,1416,234.7L1440,224L1440,320L1416,320C1392,320,1344,320,1296,320C1248,320,1200,320,1152,320C1104,320,1056,320,1008,320C960,320,912,320,864,320C816,320,768,320,720,320C672,320,624,320,576,320C528,320,480,320,432,320C384,320,336,320,288,320C240,320,192,320,144,320C96,320,48,320,24,320L0,320Z"></path></svg>