<?xml version="1.0" standalone="no"?><svg xmlns="http://www.w3.org/2000/svg" viewBox="0 0 1440 320"><path fill="#000b76" fill-opacity="1" d="M0,288L13.3,282.7C26.7,277,53,267,80,224C106.7,181,133,107,160,106.7C186.7,107,213,181,240,176C266.7,171,293,85,320,74.7C346.7,64,373,128,400,170.7C426.7,213,453,235,480,250.7C506.7,267,533,277,560,261.3C586.7,245,613,203,640,181.3C666.7,160,693,160,720,181.3C746.7,203,773,245,800,229.3C826.7,213,853,139,880,101.3C906.7,64,933,64,960,80C986.7,96,1013,128,1040,133.3C1066.7,139,1093,117,1120,122.7C1146.7,128,1173,160,1200,165.3C1226.7,171,1253,149,1280,165.3C1306.7,181,1333,235,1360,256C1386.7,277,1413,267,1427,261.3L1440,256L1440,0L1426.7,0C1413.3,0,1387,0,1360,0C1333.3,0,1307,0,1280,0C1253.3,0,1227,0,1200,0C1173.3,0,1147,0,1120,0C1093.3,0,1067,0,1040,0C1013.3,0,987,0,960,0C933.3,0,907,0,880,0C853.3,0,827,0,800,0C773.3,0,747,0,720,0C693.3,0,667,0,640,0C613.3,0,587,0,560,0C533.3,0,507,0,480,0C453.3,0,427,0,400,0C373.3,0,347,0,320,0C293.3,0,267,0,240,0C213.3,0,187,0,160,0C133.3,0,107,0,80,0C53.3,0,27,0,13,0L0,0Z"></path></svg>